<svg xmlns="http://www.w3.org/2000/svg" viewBox="0 0 316.6 316.3"><path d="M276 125.8l-52.2 129.6-39.6-121.2-48.9 121.2-49.4-151.3h10.7c6.4 0 11.9 3.9 14.3 9.4l30.4 93.3 36.8-91.3-3.7-11.4H185c.4 0 .7 0 1.1.1.1 0 .9.1 1.2.1.1 0 .2 0 .3.1.3.1.6.1.9.2.1 0 .7.2.9.3.1.1.2.1.3.1.3.1 1.1.4 1.2.4.1.1 1.3.6 1.4.7l.9.6.1.1c.6.4 1.1.8 1.6 1.1 1.9 1.6 3.4 3.6 4.3 5.8l30.4 93.3s28.9-71.6 37.4-92.9c1.6-3.8 1.4-8.2-.5-11.9-23.7-45.6-75.3-74.3-132.3-63.5C91.9 46.6 49 87.8 39.6 130 22 208.7 80.6 278.5 156 279.9c67.4 1.3 123.9-53.8 124.2-121.3.2-11.3-1.4-22.4-4.2-32.8z" fill="none" stroke="hsla(0, 0%, 50%, .2)" stroke-width="3" stroke-miterlimit="10"/></svg>